<svg version="1.1" id="Layer_1" xmlns="http://www.w3.org/2000/svg" xmlns:xlink="http://www.w3.org/1999/xlink" x="0px" y="0px"
	 width="100%" viewBox="0 0 500 500" enable-background="new 0 0 500 500" xml:space="preserve">
<path fill="#12121E" opacity="1.000000" stroke="none" 
	d="
M284.000000,501.000000 
	C189.333359,501.000000 95.166710,501.000000 1.000051,501.000000 
	C1.000034,334.333405 1.000034,167.666794 1.000017,1.000140 
	C167.666565,1.000093 334.333130,1.000093 500.999756,1.000047 
	C500.999847,167.666519 500.999847,334.333038 500.999939,500.999786 
	C428.833344,501.000000 356.666656,501.000000 284.000000,501.000000 
M226.134918,69.621559 
	C205.503464,73.698517 188.585419,83.687805 176.250916,100.966385 
	C167.884384,112.686493 162.139343,125.721054 160.167496,139.852463 
	C158.082016,154.798157 157.237106,169.956833 156.612045,185.054031 
	C156.096008,197.517883 156.323898,210.044983 156.908997,222.511810 
	C157.382172,232.593948 164.652222,238.893524 174.631729,239.022507 
	C177.963043,239.065567 181.295349,239.043304 184.627151,239.034988 
	C197.498566,239.002808 204.387344,232.271713 204.492783,219.418869 
	C204.588440,207.758209 204.540436,196.096085 204.509705,184.434723 
	C204.471893,170.084915 197.741776,163.307358 183.423355,163.165039 
	C179.339340,163.124451 175.254593,163.158813 169.737045,163.158813 
	C171.648178,152.885956 172.694534,143.271164 175.283279,134.091309 
	C183.187256,106.063240 200.771301,87.676384 230.147141,82.489784 
	C246.166077,79.661484 262.330383,79.781319 278.242310,83.734375 
	C297.419952,88.498734 311.667328,99.720352 320.836334,117.237129 
	C326.459015,127.978958 329.590515,139.512604 331.052979,151.508835 
	C331.521332,155.350616 331.758972,159.220505 332.109283,163.157211 
	C328.113556,163.157211 325.121277,163.079102 322.134857,163.178619 
	C318.980560,163.283737 315.785889,163.286545 312.689575,163.810760 
	C304.179535,165.251587 298.207306,171.805359 298.071533,180.326599 
	C297.848633,194.316620 297.822906,208.316406 298.083740,222.305191 
	C298.258942,231.699875 305.841888,238.810272 315.218140,239.010025 
	C318.881561,239.088074 322.547913,239.044983 326.212860,239.035156 
	C338.791199,239.001389 345.783508,232.122589 345.826721,219.651627 
	C345.869415,207.323975 345.809662,194.995956 345.842651,182.668243 
	C345.888123,165.666931 345.627869,148.706207 340.909302,132.165344 
	C331.874298,100.493317 313.088989,78.250717 280.089539,70.397110 
	C262.557831,66.224709 244.726410,66.864426 226.134918,69.621559 
M255.498535,128.959641 
	C251.866730,121.846649 248.234909,114.733658 244.603088,107.620659 
	C244.313538,107.696892 244.023972,107.773125 243.734421,107.849358 
	C243.734421,153.425476 243.734421,199.001602 243.734421,244.931091 
	C241.966049,244.541626 240.697235,244.265976 239.430145,243.982513 
	C221.254349,239.916245 201.595734,251.821167 196.684418,269.869568 
	C194.581604,277.597107 196.962296,282.410675 204.347198,285.363068 
	C219.175339,291.291199 238.876511,284.197174 245.168976,269.565704 
	C247.964401,263.065674 249.167892,255.440872 249.272018,248.300049 
	C249.711670,218.147903 249.457855,187.985733 249.485046,157.827255 
	C249.487091,155.567017 249.704514,153.306976 249.874878,150.024445 
	C263.685089,156.045959 275.424805,163.173325 282.577148,176.018890 
	C290.283234,189.858902 288.717865,204.284531 284.507996,218.709259 
	C283.041962,223.732529 281.152069,228.632126 279.032623,234.824341 
	C280.745361,233.442276 281.632233,233.016052 282.094910,232.311295 
	C297.100983,209.454147 298.212341,184.376099 279.544647,161.663086 
	C271.120056,151.412903 263.733337,140.309708 255.498535,128.959641 
M345.992310,411.338928 
	C344.369934,420.423462 340.303925,424.501251 331.183472,424.014465 
	C324.583252,423.662201 318.077972,421.532013 310.623627,420.009491 
	C310.196503,420.673492 308.980194,422.564270 307.564636,424.764771 
	C314.066284,430.256622 321.456207,431.747528 329.168610,431.916382 
	C346.577026,432.297638 354.773254,424.318115 354.904022,407.004028 
	C354.989471,395.687012 354.928345,384.368805 354.925385,373.051147 
	C354.923523,365.901672 354.313171,365.445099 347.229065,367.236572 
	C346.823273,368.754730 346.417450,370.272888 345.989960,371.872192 
	C331.145294,363.772156 318.497742,364.611572 310.318939,374.041016 
	C303.594269,381.793976 302.771118,394.809937 309.549103,402.637085 
	C312.733887,406.314880 317.494995,409.253113 322.120667,410.920715 
	C330.429871,413.916260 338.398773,411.572876 345.821960,405.936432 
	C345.920288,407.955963 345.983124,409.247070 345.992310,411.338928 
M298.154144,385.500061 
	C298.154144,373.064392 298.154144,360.628723 298.154144,347.947510 
	C295.087952,347.947510 292.580566,347.947510 289.596191,347.947510 
	C289.596191,352.215088 289.596191,356.014648 289.596191,359.814240 
	C289.596191,363.698212 289.596191,367.582153 289.596191,371.921906 
	C273.892487,363.816437 261.921326,364.920868 254.145905,374.616730 
	C247.051041,383.463959 246.924118,398.283447 254.825241,406.384216 
	C258.212585,409.857178 263.173676,412.471863 267.892792,413.817413 
	C275.817566,416.076965 283.251678,413.730927 289.659729,407.408630 
	C289.905182,410.015076 290.071136,411.777466 290.248962,413.665771 
	C292.841949,413.665771 295.237366,413.665771 298.154144,413.665771 
	C298.154144,404.389709 298.154144,395.444916 298.154144,385.500061 
M454.595184,366.214325 
	C454.419159,368.032135 454.243164,369.849945 454.028198,372.070068 
	C441.020874,363.614075 428.088409,364.480347 419.843811,373.806610 
	C412.234100,382.414734 411.589722,397.513000 419.472382,405.955750 
	C422.879028,409.604431 427.992615,412.376312 432.843262,413.797272 
	C440.746063,416.112427 448.213348,413.763336 454.657166,407.405060 
	C454.897095,409.995911 455.059967,411.754578 455.238464,413.682068 
	C457.803314,413.682068 460.202057,413.682068 462.874603,413.682068 
	C462.874603,391.643860 462.874603,369.929596 462.874603,347.938416 
	C460.111267,347.938416 457.599518,347.938416 454.595978,347.938416 
	C454.595978,354.025238 454.595978,359.654816 454.595184,366.214325 
M65.301910,406.277496 
	C55.295132,408.498352 46.275314,405.831055 37.955303,400.397339 
	C34.251163,406.120453 34.186966,406.635406 36.755733,408.688416 
	C45.778961,415.899994 65.690544,416.854919 75.249489,410.518555 
	C80.386749,407.113190 82.884857,402.238464 82.721176,396.147095 
	C82.552124,389.855804 79.216980,385.397980 73.577545,382.998260 
	C69.474869,381.252441 65.065346,380.231201 60.801189,378.860321 
	C57.015514,377.643280 53.002930,376.851807 49.514881,375.050659 
	C43.271481,371.826599 43.273232,364.297089 49.304359,360.682465 
	C50.831654,359.767151 52.659283,359.255463 54.415234,358.835876 
	C62.450859,356.915833 69.782112,359.534088 77.262054,362.981201 
	C78.243690,360.579163 79.095062,358.495911 80.064812,356.122986 
	C70.224411,350.122711 60.041096,349.259125 49.551529,352.004791 
	C40.857960,354.280396 36.067127,360.452148 35.992966,368.355804 
	C35.920048,376.126251 39.854576,381.152740 48.749058,384.053375 
	C54.431377,385.906464 60.293613,387.204468 65.990204,389.018280 
	C70.094368,390.325012 73.910034,392.424896 73.817009,397.501007 
	C73.727951,402.361145 70.480194,404.839447 65.301910,406.277496 
M367.247589,374.789001 
	C360.351685,384.698669 360.248383,396.845703 366.987000,405.429230 
	C373.629333,413.890106 386.392609,416.955353 396.910980,412.615753 
	C407.030640,408.440674 412.502075,398.634918 411.035980,386.617920 
	C409.883240,377.169220 404.619995,370.556702 395.606689,367.590118 
	C385.116821,364.137512 375.579895,366.028290 367.247589,374.789001 
M88.500183,402.857483 
	C93.149361,410.438477 100.099411,414.023529 108.811302,414.482605 
	C122.678619,415.213348 133.280090,406.029907 134.559143,392.219391 
	C135.771683,379.126923 126.975700,367.988007 113.684837,366.299957 
	C104.356415,365.115173 95.981964,367.579498 90.169022,375.347412 
	C83.916206,383.703094 83.734764,392.865387 88.500183,402.857483 
M140.954849,370.835083 
	C140.966782,379.152252 140.816544,387.473572 141.031174,395.785522 
	C141.307434,406.485321 147.540375,413.026276 158.138046,414.352051 
	C165.129700,415.226776 171.202286,413.166077 176.835632,408.344391 
	C177.285324,410.492462 177.612213,412.053955 177.941208,413.625427 
	C180.554077,413.625427 182.931107,413.625427 185.799622,413.625427 
	C185.799622,399.960175 185.803131,386.682495 185.798233,373.404816 
	C185.795517,366.025879 184.559753,365.147430 177.000092,367.471008 
	C177.000092,371.507416 177.005554,375.652924 176.998581,379.798462 
	C176.991577,383.956940 177.114014,388.121765 176.929077,392.272614 
	C176.526291,401.312988 170.974670,406.831207 162.512787,406.810577 
	C154.133987,406.790131 149.925415,402.169220 149.741348,392.493073 
	C149.602158,385.176422 149.887238,377.845306 149.511002,370.544983 
	C149.437881,369.126678 147.397202,367.064148 145.888214,366.641815 
	C143.673874,366.022064 140.568039,365.816833 140.954849,370.835083 
M232.665573,381.470490 
	C233.173172,392.198364 233.680771,402.926208 234.187897,413.644104 
	C236.883804,413.644104 239.288788,413.644104 242.056656,413.644104 
	C242.056656,403.490204 242.317535,393.687042 241.986450,383.903900 
	C241.624176,373.199219 234.398911,365.881073 223.694275,366.267273 
	C217.701385,366.483521 211.787994,368.903656 205.625961,370.381805 
	C205.518112,369.934570 205.141739,368.373779 204.668015,366.409271 
	C202.090790,366.592133 199.714188,366.760803 197.500473,366.917877 
	C197.500473,382.911896 197.500473,398.305206 197.500473,413.710876 
	C200.371826,413.710876 202.806458,413.710876 205.869751,413.710876 
	C205.869751,411.634247 205.861694,409.849854 205.871170,408.065491 
	C205.908295,401.070892 205.733536,394.066284 206.053619,387.084503 
	C206.364410,380.305511 210.509491,375.581512 216.645309,374.218842 
	C223.735306,372.644287 228.863342,374.773071 232.665573,381.470490 
M360.215363,204.399628 
	C360.215271,201.083405 360.217651,197.767181 360.214661,194.450958 
	C360.208344,187.475464 357.507172,184.517639 350.377075,183.551605 
	C350.377075,195.137833 350.377075,206.734833 350.377075,218.774231 
	C356.072205,215.493759 361.920532,213.146194 360.215363,204.399628 
M141.864502,207.235855 
	C140.637756,214.828079 147.357742,215.358887 151.855789,219.153183 
	C151.855789,206.538315 151.855789,194.940918 151.855789,183.235413 
	C142.928177,185.827637 141.866150,187.154312 141.864334,195.363647 
	C141.863525,199.008911 141.864243,202.654175 141.864502,207.235855 
z"/>
<path fill="#00BD62" opacity="1.000000" stroke="none" 
	d="
M226.547714,69.504379 
	C244.726410,66.864426 262.557831,66.224709 280.089539,70.397110 
	C313.088989,78.250717 331.874298,100.493317 340.909302,132.165344 
	C345.627869,148.706207 345.888123,165.666931 345.842651,182.668243 
	C345.809662,194.995956 345.869415,207.323975 345.826721,219.651627 
	C345.783508,232.122589 338.791199,239.001389 326.212860,239.035156 
	C322.547913,239.044983 318.881561,239.088074 315.218140,239.010025 
	C305.841888,238.810272 298.258942,231.699875 298.083740,222.305191 
	C297.822906,208.316406 297.848633,194.316620 298.071533,180.326599 
	C298.207306,171.805359 304.179535,165.251587 312.689575,163.810760 
	C315.785889,163.286545 318.980560,163.283737 322.134857,163.178619 
	C325.121277,163.079102 328.113556,163.157211 332.109283,163.157211 
	C331.758972,159.220505 331.521332,155.350616 331.052979,151.508835 
	C329.590515,139.512604 326.459015,127.978958 320.836334,117.237129 
	C311.667328,99.720352 297.419952,88.498734 278.242310,83.734375 
	C262.330383,79.781319 246.166077,79.661484 230.147141,82.489784 
	C200.771301,87.676384 183.187256,106.063240 175.283279,134.091309 
	C172.694534,143.271164 171.648178,152.885956 169.737045,163.158813 
	C175.254593,163.158813 179.339340,163.124451 183.423355,163.165039 
	C197.741776,163.307358 204.471893,170.084915 204.509705,184.434723 
	C204.540436,196.096085 204.588440,207.758209 204.492783,219.418869 
	C204.387344,232.271713 197.498566,239.002808 184.627151,239.034988 
	C181.295349,239.043304 177.963043,239.065567 174.631729,239.022507 
	C164.652222,238.893524 157.382172,232.593948 156.908997,222.511810 
	C156.323898,210.044983 156.096008,197.517883 156.612045,185.054031 
	C157.237106,169.956833 158.082016,154.798157 160.167496,139.852463 
	C162.139343,125.721054 167.884384,112.686493 176.250916,100.966385 
	C188.585419,83.687805 205.503464,73.698517 226.547714,69.504379 
z"/>
<path fill="#00BD62" opacity="1.000000" stroke="none" 
	d="
M255.687134,129.276581 
	C263.733337,140.309708 271.120056,151.412903 279.544647,161.663086 
	C298.212341,184.376099 297.100983,209.454147 282.094910,232.311295 
	C281.632233,233.016052 280.745361,233.442276 279.032623,234.824341 
	C281.152069,228.632126 283.041962,223.732529 284.507996,218.709259 
	C288.717865,204.284531 290.283234,189.858902 282.577148,176.018890 
	C275.424805,163.173325 263.685089,156.045959 249.874878,150.024445 
	C249.704514,153.306976 249.487091,155.567017 249.485046,157.827255 
	C249.457855,187.985733 249.711670,218.147903 249.272018,248.300049 
	C249.167892,255.440872 247.964401,263.065674 245.168976,269.565704 
	C238.876511,284.197174 219.175339,291.291199 204.347198,285.363068 
	C196.962296,282.410675 194.581604,277.597107 196.684418,269.869568 
	C201.595734,251.821167 221.254349,239.916245 239.430145,243.982513 
	C240.697235,244.265976 241.966049,244.541626 243.734421,244.931091 
	C243.734421,199.001602 243.734421,153.425476 243.734421,107.849358 
	C244.023972,107.773125 244.313538,107.696892 244.603088,107.620659 
	C248.234909,114.733658 251.866730,121.846649 255.687134,129.276581 
z"/>
<path fill="#01B961" opacity="1.000000" stroke="none" 
	d="
M346.019135,410.938538 
	C345.983124,409.247070 345.920288,407.955963 345.821960,405.936432 
	C338.398773,411.572876 330.429871,413.916260 322.120667,410.920715 
	C317.494995,409.253113 312.733887,406.314880 309.549103,402.637085 
	C302.771118,394.809937 303.594269,381.793976 310.318939,374.041016 
	C318.497742,364.611572 331.145294,363.772156 345.989960,371.872192 
	C346.417450,370.272888 346.823273,368.754730 347.230164,367.236237 
	C354.313171,365.445099 354.923523,365.901672 354.925385,373.051147 
	C354.928345,384.368805 354.989471,395.687012 354.904022,407.004028 
	C354.773254,424.318115 346.577026,432.297638 329.168610,431.916382 
	C321.456207,431.747528 314.066284,430.256622 307.564636,424.764771 
	C308.980194,422.564270 310.196503,420.673492 310.623627,420.009491 
	C318.077972,421.532013 324.583252,423.662201 331.183472,424.014465 
	C340.303925,424.501251 344.369934,420.423462 346.019135,410.938538 
M343.637634,397.897003 
	C344.173676,396.869385 344.816040,395.882538 345.228119,394.807404 
	C347.573181,388.689392 346.127930,381.954926 341.642059,377.820892 
	C337.016907,373.558441 328.570343,372.398346 322.430969,375.182343 
	C316.697998,377.782043 313.656433,382.896851 313.886108,389.639954 
	C314.106476,396.110260 317.249146,400.635620 323.195496,403.114227 
	C330.146820,406.011749 337.544586,404.244904 343.637634,397.897003 
z"/>
<path fill="#00BB61" opacity="1.000000" stroke="none" 
	d="
M298.154144,386.000092 
	C298.154144,395.444916 298.154144,404.389709 298.154144,413.665771 
	C295.237366,413.665771 292.841949,413.665771 290.248962,413.665771 
	C290.071136,411.777466 289.905182,410.015076 289.659729,407.408630 
	C283.251678,413.730927 275.817566,416.076965 267.892792,413.817413 
	C263.173676,412.471863 258.212585,409.857178 254.825241,406.384216 
	C246.924118,398.283447 247.051041,383.463959 254.145905,374.616730 
	C261.921326,364.920868 273.892487,363.816437 289.596191,371.921906 
	C289.596191,367.582153 289.596191,363.698212 289.596191,359.814240 
	C289.596191,356.014648 289.596191,352.215088 289.596191,347.947510 
	C292.580566,347.947510 295.087952,347.947510 298.154144,347.947510 
	C298.154144,360.628723 298.154144,373.064392 298.154144,386.000092 
M257.875488,391.351349 
	C258.828705,400.721497 264.486725,406.591278 272.932709,406.972046 
	C282.273651,407.393188 289.217194,400.725311 289.643127,390.924927 
	C290.057678,381.385162 283.747131,374.154877 274.685913,373.787750 
	C264.546082,373.376923 258.350250,379.522614 257.875488,391.351349 
z"/>
<path fill="#00BB61" opacity="1.000000" stroke="none" 
	d="
M454.595581,365.749359 
	C454.595978,359.654816 454.595978,354.025238 454.595978,347.938416 
	C457.599518,347.938416 460.111267,347.938416 462.874603,347.938416 
	C462.874603,369.929596 462.874603,391.643860 462.874603,413.682068 
	C460.202057,413.682068 457.803314,413.682068 455.238464,413.682068 
	C455.059967,411.754578 454.897095,409.995911 454.657166,407.405060 
	C448.213348,413.763336 440.746063,416.112427 432.843262,413.797272 
	C427.992615,412.376312 422.879028,409.604431 419.472382,405.955750 
	C411.589722,397.513000 412.234100,382.414734 419.843811,373.806610 
	C428.088409,364.480347 441.020874,363.614075 454.028198,372.070068 
	C454.243164,369.849945 454.419159,368.032135 454.595581,365.749359 
M445.650421,405.461700 
	C453.072144,401.043274 455.936218,394.468201 454.128052,385.999481 
	C452.433197,378.061554 446.184204,373.418579 437.696228,373.790680 
	C429.845673,374.134827 423.872345,379.696838 422.979004,387.494507 
	C421.404205,401.241150 431.508453,409.664520 445.650421,405.461700 
z"/>
<path fill="#01BA61" opacity="1.000000" stroke="none" 
	d="
M65.701172,406.177368 
	C70.480194,404.839447 73.727951,402.361145 73.817009,397.501007 
	C73.910034,392.424896 70.094368,390.325012 65.990204,389.018280 
	C60.293613,387.204468 54.431377,385.906464 48.749058,384.053375 
	C39.854576,381.152740 35.920048,376.126251 35.992966,368.355804 
	C36.067127,360.452148 40.857960,354.280396 49.551529,352.004791 
	C60.041096,349.259125 70.224411,350.122711 80.064812,356.122986 
	C79.095062,358.495911 78.243690,360.579163 77.262054,362.981201 
	C69.782112,359.534088 62.450859,356.915833 54.415234,358.835876 
	C52.659283,359.255463 50.831654,359.767151 49.304359,360.682465 
	C43.273232,364.297089 43.271481,371.826599 49.514881,375.050659 
	C53.002930,376.851807 57.015514,377.643280 60.801189,378.860321 
	C65.065346,380.231201 69.474869,381.252441 73.577545,382.998260 
	C79.216980,385.397980 82.552124,389.855804 82.721176,396.147095 
	C82.884857,402.238464 80.386749,407.113190 75.249489,410.518555 
	C65.690544,416.854919 45.778961,415.899994 36.755733,408.688416 
	C34.186966,406.635406 34.251163,406.120453 37.955303,400.397339 
	C46.275314,405.831055 55.295132,408.498352 65.701172,406.177368 
z"/>
<path fill="#01BA61" opacity="1.000000" stroke="none" 
	d="
M367.480560,374.516479 
	C375.579895,366.028290 385.116821,364.137512 395.606689,367.590118 
	C404.619995,370.556702 409.883240,377.169220 411.035980,386.617920 
	C412.502075,398.634918 407.030640,408.440674 396.910980,412.615753 
	C386.392609,416.955353 373.629333,413.890106 366.987000,405.429230 
	C360.248383,396.845703 360.351685,384.698669 367.480560,374.516479 
M391.393799,406.273193 
	C392.757721,405.670135 394.220032,405.223450 395.468933,404.437531 
	C401.573120,400.596069 404.175415,392.236938 401.788147,384.450836 
	C399.744965,377.786957 393.985168,373.731293 386.623108,373.772522 
	C379.093109,373.814697 373.427063,378.045166 371.428070,385.117737 
	C367.767761,398.068115 377.075623,408.447662 391.393799,406.273193 
z"/>
<path fill="#01BA61" opacity="1.000000" stroke="none" 
	d="
M88.314621,402.531311 
	C83.734764,392.865387 83.916206,383.703094 90.169022,375.347412 
	C95.981964,367.579498 104.356415,365.115173 113.684837,366.299957 
	C126.975700,367.988007 135.771683,379.126923 134.559143,392.219391 
	C133.280090,406.029907 122.678619,415.213348 108.811302,414.482605 
	C100.099411,414.023529 93.149361,410.438477 88.314621,402.531311 
M96.015663,381.806183 
	C91.741547,392.210449 95.037415,402.326172 103.841286,405.824677 
	C111.580193,408.899933 120.253342,405.819275 123.938751,398.686157 
	C128.033371,390.760986 125.630028,380.409058 118.684464,376.054413 
	C111.324020,371.439667 101.996788,373.560028 96.015663,381.806183 
z"/>
<path fill="#01B760" opacity="1.000000" stroke="none" 
	d="
M140.957703,370.378662 
	C140.568039,365.816833 143.673874,366.022064 145.888214,366.641815 
	C147.397202,367.064148 149.437881,369.126678 149.511002,370.544983 
	C149.887238,377.845306 149.602158,385.176422 149.741348,392.493073 
	C149.925415,402.169220 154.133987,406.790131 162.512787,406.810577 
	C170.974670,406.831207 176.526291,401.312988 176.929077,392.272614 
	C177.114014,388.121765 176.991577,383.956940 176.998581,379.798462 
	C177.005554,375.652924 177.000092,371.507416 177.000092,367.471008 
	C184.559753,365.147430 185.795517,366.025879 185.798233,373.404816 
	C185.803131,386.682495 185.799622,399.960175 185.799622,413.625427 
	C182.931107,413.625427 180.554077,413.625427 177.941208,413.625427 
	C177.612213,412.053955 177.285324,410.492462 176.835632,408.344391 
	C171.202286,413.166077 165.129700,415.226776 158.138046,414.352051 
	C147.540375,413.026276 141.307434,406.485321 141.031174,395.785522 
	C140.816544,387.473572 140.966782,379.152252 140.957703,370.378662 
z"/>
<path fill="#01BA61" opacity="1.000000" stroke="none" 
	d="
M232.486786,381.095734 
	C228.863342,374.773071 223.735306,372.644287 216.645309,374.218842 
	C210.509491,375.581512 206.364410,380.305511 206.053619,387.084503 
	C205.733536,394.066284 205.908295,401.070892 205.871170,408.065491 
	C205.861694,409.849854 205.869751,411.634247 205.869751,413.710876 
	C202.806458,413.710876 200.371826,413.710876 197.500473,413.710876 
	C197.500473,398.305206 197.500473,382.911896 197.500473,366.917877 
	C199.714188,366.760803 202.090790,366.592133 204.668015,366.409271 
	C205.141739,368.373779 205.518112,369.934570 205.625961,370.381805 
	C211.787994,368.903656 217.701385,366.483521 223.694275,366.267273 
	C234.398911,365.881073 241.624176,373.199219 241.986450,383.903900 
	C242.317535,393.687042 242.056656,403.490204 242.056656,413.644104 
	C239.288788,413.644104 236.883804,413.644104 234.187897,413.644104 
	C233.680771,402.926208 233.173172,392.198364 232.486786,381.095734 
z"/>
<path fill="#00BD62" opacity="1.000000" stroke="none" 
	d="
M360.215332,204.878677 
	C361.920532,213.146194 356.072205,215.493759 350.377075,218.774231 
	C350.377075,206.734833 350.377075,195.137833 350.377075,183.551605 
	C357.507172,184.517639 360.208344,187.475464 360.214661,194.450958 
	C360.217651,197.767181 360.215271,201.083405 360.215332,204.878677 
z"/>
<path fill="#00BD62" opacity="1.000000" stroke="none" 
	d="
M141.864380,206.767639 
	C141.864243,202.654175 141.863525,199.008911 141.864334,195.363647 
	C141.866150,187.154312 142.928177,185.827637 151.855789,183.235413 
	C151.855789,194.940918 151.855789,206.538315 151.855789,219.153183 
	C147.357742,215.358887 140.637756,214.828079 141.864380,206.767639 
z"/>
<path fill="#12131F" opacity="1.000000" stroke="none" 
	d="
M343.399536,398.193848 
	C337.544586,404.244904 330.146820,406.011749 323.195496,403.114227 
	C317.249146,400.635620 314.106476,396.110260 313.886108,389.639954 
	C313.656433,382.896851 316.697998,377.782043 322.430969,375.182343 
	C328.570343,372.398346 337.016907,373.558441 341.642059,377.820892 
	C346.127930,381.954926 347.573181,388.689392 345.228119,394.807404 
	C344.816040,395.882538 344.173676,396.869385 343.399536,398.193848 
z"/>
<path fill="#12141F" opacity="1.000000" stroke="none" 
	d="
M257.867920,390.914246 
	C258.350250,379.522614 264.546082,373.376923 274.685913,373.787750 
	C283.747131,374.154877 290.057678,381.385162 289.643127,390.924927 
	C289.217194,400.725311 282.273651,407.393188 272.932709,406.972046 
	C264.486725,406.591278 258.828705,400.721497 257.867920,390.914246 
z"/>
<path fill="#12141F" opacity="1.000000" stroke="none" 
	d="
M445.296265,405.632843 
	C431.508453,409.664520 421.404205,401.241150 422.979004,387.494507 
	C423.872345,379.696838 429.845673,374.134827 437.696228,373.790680 
	C446.184204,373.418579 452.433197,378.061554 454.128052,385.999481 
	C455.936218,394.468201 453.072144,401.043274 445.296265,405.632843 
z"/>
<path fill="#12141F" opacity="1.000000" stroke="none" 
	d="
M391.007935,406.397461 
	C377.075623,408.447662 367.767761,398.068115 371.428070,385.117737 
	C373.427063,378.045166 379.093109,373.814697 386.623108,373.772522 
	C393.985168,373.731293 399.744965,377.786957 401.788147,384.450836 
	C404.175415,392.236938 401.573120,400.596069 395.468933,404.437531 
	C394.220032,405.223450 392.757721,405.670135 391.007935,406.397461 
z"/>
<path fill="#12141F" opacity="1.000000" stroke="none" 
	d="
M96.193138,381.466614 
	C101.996788,373.560028 111.324020,371.439667 118.684464,376.054413 
	C125.630028,380.409058 128.033371,390.760986 123.938751,398.686157 
	C120.253342,405.819275 111.580193,408.899933 103.841286,405.824677 
	C95.037415,402.326172 91.741547,392.210449 96.193138,381.466614 
z"/>
</svg>